<?xml version="1.0" encoding="utf-8"?>
<!-- Generator: Adobe Illustrator 25.3.1, SVG Export Plug-In . SVG Version: 6.00 Build 0)  -->
<svg version="1.1" id="Layer_1" xmlns="http://www.w3.org/2000/svg" xmlns:xlink="http://www.w3.org/1999/xlink" x="0px" y="0px"
	 viewBox="0 0 70 70" style="enable-background:new 0 0 70 70;" xml:space="preserve">
<style type="text/css">
	.st0{fill:#BCBEC0;}
	.st1{fill:#8CC152;}
</style>
<path class="st0" d="M35,70c-9.4,0-18.1-3.6-24.8-10.2S0,44.4,0,35c0-9.4,3.6-18.1,10.2-24.8S25.6,0,35,0s18.1,3.6,24.8,10.3
	S70,25.7,70,35s-3.6,18.1-10.2,24.7S44.4,70,35,70z M35,3.7C17.7,3.7,3.7,17.7,3.7,35s14,31.3,31.3,31.3s31.3-14,31.3-31.3
	S52.3,3.7,35,3.7z"/>
<path class="st1" d="M27.6,49.7c-0.5,0-0.9-0.2-1.3-0.5L15.3,38.1c-0.7-0.7-0.7-1.9,0-2.6c0.7-0.7,1.9-0.7,2.6,0l9.7,9.7l24.5-24.5
	c0.7-0.7,1.9-0.7,2.6,0c0.7,0.7,0.7,1.9,0,2.6L28.9,49.2C28.6,49.6,28.1,49.7,27.6,49.7L27.6,49.7z"/>
</svg>
