<?xml version="1.0" encoding="utf-8"?>
<!-- Generator: Adobe Illustrator 25.3.1, SVG Export Plug-In . SVG Version: 6.00 Build 0)  -->
<svg version="1.1" id="Layer_1" xmlns="http://www.w3.org/2000/svg" xmlns:xlink="http://www.w3.org/1999/xlink" x="0px" y="0px"
	 viewBox="0 0 70 70" style="enable-background:new 0 0 70 70;" xml:space="preserve">
<style type="text/css">
	.st0{fill:#DA4453;}
	.st1{fill:#BCBEC0;}
</style>
<path class="st0" d="M52.8,48.4L37.8,35l15-13.4c0.8-0.7,0.8-1.8,0.2-2.6s-1.8-0.8-2.6-0.2L35,32.5L19.6,18.9
	c-0.8-0.7-1.9-0.6-2.6,0.2s-0.6,1.9,0.2,2.6l15,13.4l-15,13.4C16.4,49,16.4,50.2,17,51c0.4,0.4,0.9,0.6,1.4,0.6
	c0.4,0,0.9-0.2,1.2-0.5L35,37.5l15.4,13.7c0.4,0.3,0.8,0.5,1.2,0.5c0.5,0,1-0.2,1.4-0.6C53.6,50.2,53.6,49,52.8,48.4z"/>
<path class="st1" d="M35,70c-9.4,0-18.1-3.6-24.8-10.2S0,44.4,0,35c0-9.4,3.6-18.1,10.2-24.8S25.6,0,35,0s18.1,3.6,24.8,10.3
	S70,25.7,70,35s-3.6,18.1-10.2,24.7S44.4,70,35,70z M35,3.7C17.7,3.7,3.7,17.7,3.7,35s14,31.3,31.3,31.3s31.3-14,31.3-31.3
	S52.3,3.7,35,3.7z"/>
</svg>
