<?xml version="1.0" encoding="utf-8"?>
<!-- Generator: Adobe Illustrator 25.3.1, SVG Export Plug-In . SVG Version: 6.00 Build 0)  -->
<svg version="1.1" id="Layer_1" xmlns="http://www.w3.org/2000/svg" xmlns:xlink="http://www.w3.org/1999/xlink" x="0px" y="0px"
	 viewBox="0 0 70 70" style="enable-background:new 0 0 70 70;" xml:space="preserve">
<style type="text/css">
	.st0{fill:#BCBEC0;}
	.st1{fill:#37BC9B;}
</style>
<path class="st0" d="M59.8,10.3C53.1,3.6,44.4,0,35,0S16.9,3.6,10.2,10.3S0,25.7,0,35s3.6,18.1,10.2,24.8S25.6,70,35,70
	s18.1-3.6,24.8-10.3S70,44.3,70,35S66.4,16.9,59.8,10.3z M35,66.3c-17.3,0-31.3-14-31.3-31.3S17.7,3.7,35,3.7s31.3,14,31.3,31.3
	S52.3,66.3,35,66.3z"/>
<path class="st1" d="M57.1,33.2H36.8V12.9c0-1-0.8-1.8-1.8-1.8s-1.8,0.8-1.8,1.8v20.3H12.9c-1,0-1.8,0.8-1.8,1.8s0.8,1.8,1.8,1.8
	h20.3v20.3c0,1,0.8,1.8,1.8,1.8s1.8-0.8,1.8-1.8V36.8h20.3c1,0,1.8-0.8,1.8-1.8S58.1,33.2,57.1,33.2z"/>
</svg>
